<svg xmlns="http://www.w3.org/2000/svg" viewBox="0 0 640 360" role="img" aria-labelledby="title desc">
  <title id="title">Map preview for Bendigo South East College</title>
  <desc id="desc">Stylized map preview showing the Bendigo South East College location.</desc>
  <defs>
    <linearGradient id="bg" x1="0" y1="0" x2="1" y2="1">
      <stop offset="0%" stop-color="#eef3fb"/>
      <stop offset="100%" stop-color="#dfe8f5"/>
    </linearGradient>
    <filter id="shadow" x="-20%" y="-20%" width="140%" height="140%">
      <feDropShadow dx="0" dy="6" stdDeviation="8" flood-color="#000" flood-opacity="0.15"/>
    </filter>
  </defs>
  <rect width="640" height="360" fill="url(#bg)"/>
  <g opacity="0.22" stroke="#8aa0c5" stroke-width="4" fill="none">
    <path d="M-20 90 C80 60, 130 120, 220 92 S380 60, 500 88 S640 120, 700 84"/>
    <path d="M-10 180 C90 155, 160 205, 260 180 S430 145, 540 178 S650 215, 700 182"/>
    <path d="M-10 270 C90 245, 180 295, 270 270 S420 232, 540 262 S650 300, 700 270"/>
    <path d="M120 -10 C110 50, 170 120, 145 170 S120 290, 150 370"/>
    <path d="M320 -10 C300 70, 360 110, 335 180 S310 290, 345 370"/>
    <path d="M520 -10 C490 70, 560 120, 535 190 S510 300, 545 370"/>
  </g>
  <g opacity="0.45" fill="#fff">
    <circle cx="70" cy="70" r="10"/>
    <circle cx="120" cy="120" r="8"/>
    <circle cx="210" cy="80" r="7"/>
    <circle cx="315" cy="140" r="9"/>
    <circle cx="440" cy="92" r="8"/>
    <circle cx="555" cy="150" r="10"/>
    <circle cx="480" cy="255" r="8"/>
    <circle cx="180" cy="250" r="9"/>
  </g>
  <g filter="url(#shadow)">
    <circle cx="250" cy="180" r="30" fill="#e05b4f"/>
    <path d="M250 118c-19 0-34 15-34 34 0 25 34 58 34 58s34-33 34-58c0-19-15-34-34-34zm0 50c-9 0-16-7-16-16s7-16 16-16 16 7 16 16-7 16-16 16z" fill="#ffffff" transform="translate(0 -6) scale(0.55) translate(202 138)"/>
  </g>
  <g filter="url(#shadow)">
    <rect x="30" y="24" width="320" height="88" rx="18" fill="#ffffff"/>
    <text x="54" y="58" font-family="Arial, Helvetica, sans-serif" font-size="26" font-weight="700" fill="#573F93">Bendigo South East College</text>
    <text x="54" y="86" font-family="Arial, Helvetica, sans-serif" font-size="16" fill="#5f6b7f">56 Ellis St, Flora Hill VIC 3550</text>
  </g>
  <g filter="url(#shadow)">
    <rect x="430" y="246" width="180" height="82" rx="18" fill="#ffffff"/>
    <text x="450" y="280" font-family="Arial, Helvetica, sans-serif" font-size="18" font-weight="700" fill="#573F93">Tap to open map</text>
    <text x="450" y="304" font-family="Arial, Helvetica, sans-serif" font-size="14" fill="#5f6b7f">BSE training venue</text>
  </g>
</svg>
